<svg width="357" height="63" viewBox="0 0 357 63" fill="none" xmlns="http://www.w3.org/2000/svg">
<path d="M41.7675 42.3224C41.1023 42.3236 40.4548 42.1084 39.9227 41.7094L39.8897 41.6846L32.9413 36.3693C32.2937 35.8702 31.8705 35.1347 31.7644 34.324C31.6584 33.5133 31.8782 32.6937 32.3756 32.0448C32.8731 31.396 33.6075 30.9709 34.418 30.8628C35.2284 30.7547 36.0486 30.9724 36.6987 31.4682L41.1993 34.9195L51.8344 21.0447C52.0811 20.7231 52.3886 20.4531 52.7396 20.2503C53.0905 20.0475 53.4779 19.9158 53.8798 19.8627C54.2816 19.8096 54.69 19.8362 55.0815 19.941C55.4731 20.0457 55.8402 20.2265 56.1619 20.4732L56.1628 20.4738L56.0968 20.5655L56.1646 20.4738C56.8135 20.9726 57.2381 21.7084 57.3452 22.5199C57.4522 23.3314 57.2329 24.1521 56.7355 24.8021L44.2262 41.1146C43.9368 41.4905 43.5647 41.7946 43.1388 42.0034C42.7128 42.2123 42.2445 42.3202 41.7702 42.3188L41.7675 42.3224Z" fill="#724CF9"/>
<path d="M80.7663 62.1584H0.233678C0.171703 62.1584 0.112266 62.1338 0.0684426 62.09C0.0246194 62.0461 0 61.9867 0 61.9247V0.233678C0 0.171703 0.0246194 0.112266 0.0684426 0.0684426C0.112266 0.0246194 0.171703 0 0.233678 0H40.5C40.562 0 40.6214 0.0246194 40.6652 0.0684426C40.709 0.112266 40.7337 0.171703 40.7337 0.233678C40.7337 0.295654 40.709 0.355091 40.6652 0.398914C40.6214 0.442737 40.562 0.467356 40.5 0.467356H0.467356V61.6911H80.5326V31.0792C80.5326 31.0172 80.5573 30.9578 80.6011 30.914C80.6449 30.8701 80.7043 30.8455 80.7663 30.8455C80.8283 30.8455 80.8877 30.8701 80.9316 30.914C80.9754 30.9578 81 31.0172 81 31.0792V61.9247C81 61.9867 80.9754 62.0461 80.9316 62.09C80.8877 62.1338 80.8283 62.1584 80.7663 62.1584Z" fill="#3F3D56"/>
<path d="M134.389 26.0909H125.176C125.111 25.3286 124.937 24.6371 124.653 24.0163C124.381 23.3956 124 22.862 123.51 22.4155C123.031 21.9581 122.448 21.6096 121.762 21.37C121.076 21.1196 120.297 20.9943 119.426 20.9943C117.902 20.9943 116.611 21.3646 115.555 22.1051C114.509 22.8456 113.714 23.9074 113.17 25.2905C112.636 26.6735 112.369 28.3343 112.369 30.2727C112.369 32.3201 112.642 34.0353 113.186 35.4183C113.741 36.7905 114.542 37.825 115.587 38.522C116.633 39.2081 117.891 39.5511 119.361 39.5511C120.199 39.5511 120.951 39.4477 121.615 39.2408C122.279 39.023 122.857 38.7126 123.347 38.3097C123.837 37.9067 124.234 37.4221 124.539 36.8558C124.855 36.2786 125.067 35.6307 125.176 34.9119L134.389 34.9773C134.28 36.393 133.883 37.8359 133.197 39.3061C132.511 40.7654 131.536 42.1158 130.273 43.3572C129.02 44.5878 127.469 45.5788 125.617 46.3303C123.766 47.0817 121.615 47.4574 119.165 47.4574C116.094 47.4574 113.339 46.7985 110.899 45.4808C108.471 44.1631 106.549 42.2247 105.133 39.6655C103.728 37.1063 103.026 33.9754 103.026 30.2727C103.026 26.5483 103.744 23.4119 105.182 20.8636C106.619 18.3044 108.558 16.3714 110.997 15.0646C113.437 13.7469 116.159 13.0881 119.165 13.0881C121.277 13.0881 123.221 13.3767 124.996 13.9538C126.772 14.531 128.329 15.375 129.668 16.4858C131.008 17.5857 132.086 18.9415 132.903 20.5533C133.719 22.165 134.215 24.0109 134.389 26.0909ZM147.657 32.8864V47H138.64V13.5455H147.331V26.679H147.592C148.158 25.0781 149.1 23.8312 150.418 22.9382C151.736 22.0343 153.32 21.5824 155.172 21.5824C156.947 21.5824 158.488 21.9853 159.795 22.7912C161.112 23.5971 162.131 24.7079 162.849 26.1236C163.579 27.5393 163.938 29.1619 163.927 30.9915V47H154.91V32.8864C154.921 31.6449 154.611 30.6702 153.979 29.9624C153.358 29.2545 152.471 28.9006 151.317 28.9006C150.587 28.9006 149.944 29.0639 149.389 29.3906C148.845 29.7064 148.42 30.1638 148.115 30.7628C147.821 31.3509 147.668 32.0587 147.657 32.8864ZM180.401 47.4574C177.722 47.4574 175.414 46.9455 173.475 45.9219C171.548 44.8873 170.061 43.4062 169.016 41.4787C167.981 39.5402 167.464 37.2206 167.464 34.5199C167.464 31.928 167.987 29.6629 169.032 27.7244C170.078 25.786 171.553 24.2777 173.459 23.1996C175.365 22.1214 177.614 21.5824 180.205 21.5824C182.1 21.5824 183.816 21.8764 185.351 22.4645C186.887 23.0526 188.199 23.9074 189.288 25.0291C190.377 26.1399 191.215 27.4903 191.803 29.0803C192.392 30.6702 192.686 32.4616 192.686 34.4545V36.5455H170.274V31.5795H184.387C184.376 30.8608 184.191 30.2292 183.832 29.6847C183.483 29.1293 183.01 28.6991 182.411 28.3942C181.823 28.0784 181.153 27.9205 180.401 27.9205C179.672 27.9205 179.002 28.0784 178.392 28.3942C177.782 28.6991 177.292 29.1238 176.922 29.6683C176.563 30.2128 176.372 30.8499 176.35 31.5795V36.9375C176.35 37.7434 176.519 38.4621 176.857 39.0938C177.194 39.7254 177.679 40.2209 178.311 40.5803C178.942 40.9396 179.704 41.1193 180.597 41.1193C181.218 41.1193 181.785 41.0322 182.296 40.858C182.819 40.6837 183.266 40.4332 183.636 40.1065C184.006 39.7689 184.278 39.366 184.453 38.8977H192.686C192.402 40.6402 191.733 42.1539 190.676 43.4389C189.62 44.7131 188.221 45.7041 186.478 46.4119C184.747 47.1089 182.721 47.4574 180.401 47.4574ZM208.453 47.4574C205.731 47.4574 203.4 46.9183 201.462 45.8402C199.523 44.7512 198.037 43.2375 197.002 41.299C195.968 39.3497 195.45 37.09 195.45 34.5199C195.45 31.9498 195.968 29.6955 197.002 27.7571C198.037 25.8078 199.523 24.294 201.462 23.2159C203.4 22.1269 205.731 21.5824 208.453 21.5824C210.914 21.5824 213.043 22.0289 214.84 22.9219C216.648 23.804 218.047 25.0563 219.038 26.679C220.029 28.2907 220.53 30.1856 220.541 32.3636H212.178C212.058 31.0459 211.677 30.044 211.034 29.358C210.402 28.661 209.586 28.3125 208.584 28.3125C207.8 28.3125 207.114 28.5412 206.526 28.9986C205.938 29.4451 205.48 30.1257 205.153 31.0405C204.827 31.9444 204.663 33.0824 204.663 34.4545C204.663 35.8267 204.827 36.9702 205.153 37.8849C205.48 38.7888 205.938 39.4695 206.526 39.9268C207.114 40.3733 207.8 40.5966 208.584 40.5966C209.248 40.5966 209.836 40.4441 210.348 40.1392C210.86 39.8234 211.274 39.366 211.589 38.767C211.916 38.1572 212.112 37.4167 212.178 36.5455H220.541C220.509 38.7562 220.002 40.6837 219.022 42.3281C218.042 43.9616 216.653 45.2249 214.857 46.1179C213.071 47.0109 210.936 47.4574 208.453 47.4574ZM232.364 41.054L232.429 30.3381H233.605L239.682 21.9091H249.81L239.617 35.0426H237.068L232.364 41.054ZM224.262 47V13.5455H233.279V47H224.262ZM239.747 47L233.997 37.0682L239.878 30.6648L250.071 47H239.747ZM270.274 13.5455V47H261.191V13.5455H270.274ZM289.672 21.9091V28.4432H273.141V21.9091H289.672ZM276.342 15.8977H285.359V38.9304C285.359 39.2789 285.419 39.5729 285.539 39.8125C285.659 40.0412 285.844 40.2154 286.094 40.3352C286.345 40.4441 286.666 40.4986 287.058 40.4986C287.33 40.4986 287.646 40.4659 288.006 40.4006C288.376 40.3352 288.648 40.2808 288.822 40.2372L290.129 46.5753C289.726 46.6951 289.149 46.8421 288.398 47.0163C287.657 47.1906 286.775 47.3049 285.751 47.3594C283.682 47.4683 281.945 47.2559 280.54 46.7223C279.136 46.1778 278.079 45.3229 277.371 44.1577C276.664 42.9924 276.321 41.5331 276.342 39.7798V15.8977Z" fill="#724CF9"/>
</svg>
